<mxfile host="app.diagrams.net" agent="Mozilla/5.0 (Windows NT 10.0; Win64; x64) AppleWebKit/537.36 (KHTML, like Gecko) Chrome/130.0.0.0 Safari/537.36 Edg/130.0.0.0" version="24.8.3">
  <diagram name="Страница — 1" id="VQgUtAE3xBim7ZMWFobs">
    <mxGraphModel dx="434" dy="236" grid="1" gridSize="10" guides="1" tooltips="1" connect="1" arrows="1" fold="1" page="1" pageScale="1" pageWidth="827" pageHeight="1169" math="0" shadow="0">
      <root>
        <mxCell id="0" />
        <mxCell id="1" parent="0" />
        <mxCell id="mtG67l30kHN1u1jISG1V-3" value="&lt;span style=&quot;border-bottom: 1px dotted&quot;&gt;id&lt;/span&gt;" style="ellipse;whiteSpace=wrap;html=1;align=center;" vertex="1" parent="1">
          <mxGeometry x="50" y="480" width="100" height="40" as="geometry" />
        </mxCell>
        <mxCell id="mtG67l30kHN1u1jISG1V-12" value="Звонит" style="shape=rhombus;perimeter=rhombusPerimeter;whiteSpace=wrap;html=1;align=center;" vertex="1" parent="1">
          <mxGeometry x="180" y="360" width="100" height="40" as="geometry" />
        </mxCell>
        <mxCell id="mtG67l30kHN1u1jISG1V-13" value="" style="endArrow=none;html=1;rounded=0;entryX=0.5;entryY=1;entryDx=0;entryDy=0;" edge="1" parent="1">
          <mxGeometry relative="1" as="geometry">
            <mxPoint x="230" y="360" as="sourcePoint" />
            <mxPoint x="230" y="280" as="targetPoint" />
          </mxGeometry>
        </mxCell>
        <mxCell id="mtG67l30kHN1u1jISG1V-14" value="N" style="resizable=0;html=1;whiteSpace=wrap;align=right;verticalAlign=bottom;" connectable="0" vertex="1" parent="mtG67l30kHN1u1jISG1V-13">
          <mxGeometry x="1" relative="1" as="geometry">
            <mxPoint y="20" as="offset" />
          </mxGeometry>
        </mxCell>
        <mxCell id="mtG67l30kHN1u1jISG1V-16" value="" style="endArrow=none;html=1;rounded=0;entryX=0.5;entryY=1;entryDx=0;entryDy=0;" edge="1" parent="1">
          <mxGeometry relative="1" as="geometry">
            <mxPoint x="229.71" y="480" as="sourcePoint" />
            <mxPoint x="229.71" y="400" as="targetPoint" />
          </mxGeometry>
        </mxCell>
        <mxCell id="mtG67l30kHN1u1jISG1V-17" value="N" style="resizable=0;html=1;whiteSpace=wrap;align=right;verticalAlign=bottom;" connectable="0" vertex="1" parent="mtG67l30kHN1u1jISG1V-16">
          <mxGeometry x="1" relative="1" as="geometry">
            <mxPoint y="70" as="offset" />
          </mxGeometry>
        </mxCell>
        <mxCell id="mtG67l30kHN1u1jISG1V-20" value="Приоритет" style="shape=ext;margin=3;double=1;whiteSpace=wrap;html=1;align=center;" vertex="1" parent="1">
          <mxGeometry x="560" y="480" width="100" height="40" as="geometry" />
        </mxCell>
        <mxCell id="mtG67l30kHN1u1jISG1V-64" style="edgeStyle=orthogonalEdgeStyle;rounded=0;orthogonalLoop=1;jettySize=auto;html=1;entryX=1;entryY=0.5;entryDx=0;entryDy=0;exitX=0.5;exitY=0;exitDx=0;exitDy=0;" edge="1" parent="1" source="mtG67l30kHN1u1jISG1V-22" target="mtG67l30kHN1u1jISG1V-54">
          <mxGeometry relative="1" as="geometry" />
        </mxCell>
        <mxCell id="mtG67l30kHN1u1jISG1V-22" value="Админ" style="whiteSpace=wrap;html=1;align=center;" vertex="1" parent="1">
          <mxGeometry x="440" y="240" width="100" height="40" as="geometry" />
        </mxCell>
        <mxCell id="mtG67l30kHN1u1jISG1V-63" style="edgeStyle=orthogonalEdgeStyle;rounded=0;orthogonalLoop=1;jettySize=auto;html=1;exitX=0.5;exitY=0;exitDx=0;exitDy=0;entryX=0;entryY=0.5;entryDx=0;entryDy=0;" edge="1" parent="1" source="mtG67l30kHN1u1jISG1V-23" target="mtG67l30kHN1u1jISG1V-54">
          <mxGeometry relative="1" as="geometry" />
        </mxCell>
        <mxCell id="mtG67l30kHN1u1jISG1V-23" value="Caller" style="whiteSpace=wrap;html=1;align=center;" vertex="1" parent="1">
          <mxGeometry x="180" y="240" width="100" height="40" as="geometry" />
        </mxCell>
        <mxCell id="mtG67l30kHN1u1jISG1V-24" value="Абитуриент" style="whiteSpace=wrap;html=1;align=center;" vertex="1" parent="1">
          <mxGeometry x="180" y="480" width="100" height="40" as="geometry" />
        </mxCell>
        <mxCell id="mtG67l30kHN1u1jISG1V-25" value="" style="shape=link;html=1;rounded=0;exitX=1;exitY=0.5;exitDx=0;exitDy=0;" edge="1" parent="1">
          <mxGeometry relative="1" as="geometry">
            <mxPoint x="490" y="499.88" as="sourcePoint" />
            <mxPoint x="560" y="499.88" as="targetPoint" />
          </mxGeometry>
        </mxCell>
        <mxCell id="mtG67l30kHN1u1jISG1V-27" value="N" style="resizable=0;html=1;whiteSpace=wrap;align=right;verticalAlign=bottom;" connectable="0" vertex="1" parent="mtG67l30kHN1u1jISG1V-25">
          <mxGeometry x="1" relative="1" as="geometry">
            <mxPoint x="-10" as="offset" />
          </mxGeometry>
        </mxCell>
        <mxCell id="mtG67l30kHN1u1jISG1V-28" value="Выбирает" style="shape=rhombus;double=1;perimeter=rhombusPerimeter;whiteSpace=wrap;html=1;align=center;" vertex="1" parent="1">
          <mxGeometry x="370" y="470" width="120" height="60" as="geometry" />
        </mxCell>
        <mxCell id="mtG67l30kHN1u1jISG1V-33" value="ФИО" style="ellipse;whiteSpace=wrap;html=1;align=center;" vertex="1" parent="1">
          <mxGeometry x="190" y="70" width="100" height="40" as="geometry" />
        </mxCell>
        <mxCell id="mtG67l30kHN1u1jISG1V-38" value="ОП" style="ellipse;whiteSpace=wrap;html=1;align=center;" vertex="1" parent="1">
          <mxGeometry x="570" y="560" width="100" height="40" as="geometry" />
        </mxCell>
        <mxCell id="mtG67l30kHN1u1jISG1V-39" value="Конкурсный&amp;nbsp;&lt;div&gt;балл&lt;/div&gt;" style="ellipse;whiteSpace=wrap;html=1;align=center;" vertex="1" parent="1">
          <mxGeometry x="660" y="530" width="100" height="40" as="geometry" />
        </mxCell>
        <mxCell id="mtG67l30kHN1u1jISG1V-40" value="Значение&lt;div&gt;Приоритета&lt;/div&gt;" style="ellipse;whiteSpace=wrap;html=1;align=center;" vertex="1" parent="1">
          <mxGeometry x="680" y="480" width="100" height="40" as="geometry" />
        </mxCell>
        <mxCell id="mtG67l30kHN1u1jISG1V-41" value="&lt;span style=&quot;border-bottom: 1px dotted&quot;&gt;id&lt;/span&gt;" style="ellipse;whiteSpace=wrap;html=1;align=center;" vertex="1" parent="1">
          <mxGeometry x="670" y="430" width="100" height="40" as="geometry" />
        </mxCell>
        <mxCell id="mtG67l30kHN1u1jISG1V-42" value="Контакты&lt;div&gt;Контактного лица&lt;/div&gt;" style="ellipse;whiteSpace=wrap;html=1;align=center;" vertex="1" parent="1">
          <mxGeometry x="90" y="534" width="110" height="50" as="geometry" />
        </mxCell>
        <mxCell id="mtG67l30kHN1u1jISG1V-43" value="ФИО" style="ellipse;whiteSpace=wrap;html=1;align=center;" vertex="1" parent="1">
          <mxGeometry x="200" y="560" width="100" height="40" as="geometry" />
        </mxCell>
        <mxCell id="mtG67l30kHN1u1jISG1V-44" value="Почта" style="ellipse;whiteSpace=wrap;html=1;align=center;" vertex="1" parent="1">
          <mxGeometry x="280" y="530" width="100" height="40" as="geometry" />
        </mxCell>
        <mxCell id="mtG67l30kHN1u1jISG1V-45" value="Номер" style="ellipse;whiteSpace=wrap;html=1;align=center;" vertex="1" parent="1">
          <mxGeometry x="95" y="430" width="100" height="40" as="geometry" />
        </mxCell>
        <mxCell id="mtG67l30kHN1u1jISG1V-46" value="Рег. Номер" style="ellipse;whiteSpace=wrap;html=1;align=center;" vertex="1" parent="1">
          <mxGeometry x="260" y="420" width="100" height="40" as="geometry" />
        </mxCell>
        <mxCell id="mtG67l30kHN1u1jISG1V-47" value="Регион проживания" style="ellipse;whiteSpace=wrap;html=1;align=center;" vertex="1" parent="1">
          <mxGeometry x="110" y="610" width="100" height="40" as="geometry" />
        </mxCell>
        <mxCell id="mtG67l30kHN1u1jISG1V-48" value="Телеграм" style="ellipse;whiteSpace=wrap;html=1;align=center;" vertex="1" parent="1">
          <mxGeometry x="250" y="30" width="100" height="40" as="geometry" />
        </mxCell>
        <mxCell id="mtG67l30kHN1u1jISG1V-49" value="Роль" style="ellipse;whiteSpace=wrap;html=1;align=center;" vertex="1" parent="1">
          <mxGeometry x="413.5" y="80" width="100" height="40" as="geometry" />
        </mxCell>
        <mxCell id="mtG67l30kHN1u1jISG1V-50" value="Дата найма" style="ellipse;whiteSpace=wrap;html=1;align=center;" vertex="1" parent="1">
          <mxGeometry x="70" y="250" width="100" height="40" as="geometry" />
        </mxCell>
        <mxCell id="mtG67l30kHN1u1jISG1V-51" value="ОП" style="ellipse;whiteSpace=wrap;html=1;align=center;" vertex="1" parent="1">
          <mxGeometry x="70" y="200" width="100" height="40" as="geometry" />
        </mxCell>
        <mxCell id="mtG67l30kHN1u1jISG1V-52" value="&lt;span style=&quot;border-bottom: 1px dotted&quot;&gt;id&lt;/span&gt;" style="ellipse;whiteSpace=wrap;html=1;align=center;" vertex="1" parent="1">
          <mxGeometry x="370" y="30" width="100" height="40" as="geometry" />
        </mxCell>
        <mxCell id="mtG67l30kHN1u1jISG1V-59" style="edgeStyle=orthogonalEdgeStyle;rounded=0;orthogonalLoop=1;jettySize=auto;html=1;entryX=0.5;entryY=0;entryDx=0;entryDy=0;" edge="1" parent="1" source="mtG67l30kHN1u1jISG1V-53" target="mtG67l30kHN1u1jISG1V-54">
          <mxGeometry relative="1" as="geometry" />
        </mxCell>
        <mxCell id="mtG67l30kHN1u1jISG1V-53" value="Сотрудник" style="whiteSpace=wrap;html=1;align=center;" vertex="1" parent="1">
          <mxGeometry x="300" y="80" width="100" height="40" as="geometry" />
        </mxCell>
        <mxCell id="mtG67l30kHN1u1jISG1V-56" value="" style="group" vertex="1" connectable="0" parent="1">
          <mxGeometry x="305" y="170" width="90" height="40" as="geometry" />
        </mxCell>
        <mxCell id="mtG67l30kHN1u1jISG1V-54" value="" style="verticalLabelPosition=bottom;verticalAlign=top;html=1;shape=hexagon;perimeter=hexagonPerimeter2;arcSize=6;size=0.27;" vertex="1" parent="mtG67l30kHN1u1jISG1V-56">
          <mxGeometry width="90" height="40" as="geometry" />
        </mxCell>
        <mxCell id="mtG67l30kHN1u1jISG1V-55" value="Является" style="text;html=1;align=center;verticalAlign=middle;whiteSpace=wrap;rounded=0;" vertex="1" parent="mtG67l30kHN1u1jISG1V-56">
          <mxGeometry x="18" y="10" width="54" height="20" as="geometry" />
        </mxCell>
        <mxCell id="mtG67l30kHN1u1jISG1V-60" style="edgeStyle=orthogonalEdgeStyle;rounded=0;orthogonalLoop=1;jettySize=auto;html=1;exitX=0;exitY=0.75;exitDx=0;exitDy=0;entryX=0;entryY=0.75;entryDx=0;entryDy=0;" edge="1" parent="mtG67l30kHN1u1jISG1V-56" source="mtG67l30kHN1u1jISG1V-54" target="mtG67l30kHN1u1jISG1V-54">
          <mxGeometry relative="1" as="geometry" />
        </mxCell>
        <mxCell id="mtG67l30kHN1u1jISG1V-66" value="" style="endArrow=none;html=1;rounded=0;entryX=0;entryY=0.5;entryDx=0;entryDy=0;" edge="1" parent="1" target="mtG67l30kHN1u1jISG1V-28">
          <mxGeometry relative="1" as="geometry">
            <mxPoint x="280" y="500" as="sourcePoint" />
            <mxPoint x="440" y="500" as="targetPoint" />
          </mxGeometry>
        </mxCell>
        <mxCell id="mtG67l30kHN1u1jISG1V-67" value="N" style="resizable=0;html=1;whiteSpace=wrap;align=right;verticalAlign=bottom;" connectable="0" vertex="1" parent="mtG67l30kHN1u1jISG1V-66">
          <mxGeometry x="1" relative="1" as="geometry">
            <mxPoint x="-70" as="offset" />
          </mxGeometry>
        </mxCell>
      </root>
    </mxGraphModel>
  </diagram>
</mxfile>
